/* XPM */
static char * speaker_off_xpm[] = {
"22 22 2 1",
" 	c none",
".	c #000",
"                      ",
"                      ",
"                      ",
"           .          ",
"          ..          ",
"         ...          ",
"        ....          ",
"       .....          ",
"   .........          ",
"   .........          ",
"   .........          ",
"   .........          ",
"   .........          ",
"   .........          ",
"       .....          ",
"        ....          ",
"         ...          ",
"          ..          ",
"           .          ",
"                      ",
"                      ",
"                      "};
